ffmpeg started on 2016-12-08 at 13:14:20
Report written to "Output/x264/results/ffmpeg/crowd_run_2160p50veryslow2500k.log"
Command line:
Tools/ffmpeg/ffmpeg -benchmark -y -i Input/y4m/crowd_run_2160p50.y4m -c:v libx264 -preset veryslow -b:v 2500k -an Output/x264/encoded/crowd_run_2160p50veryslow2500k.mkv
ffmpeg version N-82227-gdb23fde Copyright (c) 2000-2016 the FFmpeg developers
  built with gcc 5.4.0 (Ubuntu 5.4.0-6ubuntu1~16.04.2) 20160609
  configuration: --prefix=/home/jaroslav/ffmpeg_build --pkg-config-flags=--static --extra-cflags=-I/home/jaroslav/ffmpeg_build/include --extra-ldflags=-L/home/jaroslav/ffmpeg_build/lib --bindir=/home/jaroslav/bin --enable-gpl --enable-libass --enable-libfdk-aac --enable-libfreetype --enable-libmp3lame --enable-libopus --enable-libtheora --enable-libvorbis --enable-libvpx --enable-libx264 --enable-libx265 --enable-nvenc --enable-libmfx --enable-libxvid --enable-libgsm --enable-libopencore-amrnb --enable-version3 --enable-nonfree
  libavutil      55. 35.100 / 55. 35.100
  libavcodec     57. 66.101 / 57. 66.101
  libavformat    57. 57.100 / 57. 57.100
  libavdevice    57.  2.100 / 57.  2.100
  libavfilter     6. 66.100 /  6. 66.100
  libswscale      4.  3.100 /  4.  3.100
  libswresample   2.  4.100 /  2.  4.100
  libpostproc    54.  2.100 / 54.  2.100
Input #0, yuv4mpegpipe, from 'Input/y4m/crowd_run_2160p50.y4m':
  Duration: 00:00:10.00, start: 0.000000, bitrate: 4976642 kb/s
    Stream #0:0: Video: rawvideo (I420 / 0x30323449), yuv420p(progressive), 3840x2160, SAR 1:1 DAR 16:9, 50 fps, 50 tbr, 50 tbn, 50 tbc
[libx264 @ 0x401c1c0] using SAR=1/1
[libx264 @ 0x401c1c0] DPB size (16 frames, 518400 mbs) > level limit (5 frames, 184320 mbs)
[libx264 @ 0x401c1c0] using cpu capabilities: MMX2 SSE2Fast SSSE3 SSE4.2 AVX FMA3 AVX2 LZCNT BMI2
[libx264 @ 0x401c1c0] profile High, level 5.2
[libx264 @ 0x401c1c0] 264 - core 148 - H.264/MPEG-4 AVC codec - Copyleft 2003-2016 - http://www.videolan.org/x264.html - options: cabac=1 ref=16 deblock=1:0:0 analyse=0x3:0x133 me=umh subme=10 psy=1 psy_rd=1.00:0.00 mixed_ref=1 me_range=24 chroma_me=1 trellis=2 8x8dct=1 cqm=0 deadzone=21,11 fast_pskip=1 chroma_qp_offset=-2 threads=6 lookahead_threads=1 sliced_threads=0 nr=0 decimate=1 interlaced=0 bluray_compat=0 constrained_intra=0 bframes=8 b_pyramid=2 b_adapt=2 b_bias=0 direct=3 weightb=1 open_gop=0 weightp=2 keyint=250 keyint_min=25 scenecut=40 intra_refresh=0 rc_lookahead=60 rc=abr mbtree=1 bitrate=2500 ratetol=1.0 qcomp=0.60 qpmin=0 qpmax=69 qpstep=4 ip_ratio=1.40 aq=1:1.00
Output #0, matroska, to 'Output/x264/encoded/crowd_run_2160p50veryslow2500k.mkv':
  Metadata:
    encoder         : Lavf57.57.100
    Stream #0:0: Video: h264 (libx264) (H264 / 0x34363248), yuv420p, 3840x2160 [SAR 1:1 DAR 16:9], q=-1--1, 2500 kb/s, 50 fps, 1k tbn, 50 tbc
    Metadata:
      encoder         : Lavc57.66.101 libx264
    Side data:
      cpb: bitrate max/min/avg: 0/0/2500000 buffer size: 0 vbv_delay: -1
Stream mapping:
  Stream #0:0 -> #0:0 (rawvideo (native) -> h264 (libx264))
Press [q] to stop, [?] for help
frame=   19 fps=0.0 q=0.0 size=       0kB time=00:00:00.00 bitrate=N/A speed=   0x    frame=   32 fps= 30 q=0.0 size=       0kB time=00:00:00.00 bitrate=N/A speed=   0x    frame=   44 fps= 28 q=0.0 size=       0kB time=00:00:00.00 bitrate=N/A speed=   0x    frame=   50 fps= 22 q=0.0 size=       0kB time=00:00:00.00 bitrate=N/A speed=   0x    frame=   60 fps= 22 q=0.0 size=       0kB time=00:00:00.00 bitrate=N/A speed=   0x    frame=   70 fps= 21 q=0.0 size=       0kB time=00:00:00.00 bitrate=N/A speed=   0x    frame=   72 fps=6.8 q=0.0 size=       0kB time=00:00:00.00 bitrate=N/A speed=   0x    frame=   77 fps=6.7 q=54.0 size=       1kB time=-00:00:00.01 bitrate=N/A speed=N/A    frame=   78 fps=6.2 q=50.0 size=       1kB time=00:00:00.00 bitrate=5888.0kbits/s speed=8.01e-05x    frame=   82 fps=5.9 q=58.0 size=       1kB time=00:00:00.08 bitrate=  72.7kbits/s speed=0.00583x    frame=   86 fps=5.5 q=62.0 size=       1kB time=00:00:00.16 bitrate=  36.6kbits/s speed=0.0103x    frame=   90 fps=5.2 q=62.0 size=       1kB time=00:00:00.24 bitrate=  24.4kbits/s speed=0.0139x    frame=   94 fps=5.0 q=62.0 size=       1kB time=00:00:00.32 bitrate=  18.3kbits/s speed=0.017x    frame=   97 fps=5.0 q=62.0 size=       1kB time=00:00:00.38 bitrate=  15.5kbits/s speed=0.0195x    frame=   98 fps=4.8 q=62.0 size=       1kB time=00:00:00.40 bitrate=  14.7kbits/s speed=0.0196x    frame=   99 fps=4.6 q=62.0 size=       1kB time=00:00:00.42 bitrate=  14.0kbits/s speed=0.0197x    frame=  101 fps=4.6 q=61.0 size=       1kB time=00:00:00.46 bitrate=  12.8kbits/s speed=0.0209x    frame=  103 fps=4.3 q=62.0 size=       1kB time=00:00:00.50 bitrate=  11.8kbits/s speed=0.0209x    frame=  104 fps=4.2 q=61.0 size=       1kB time=00:00:00.52 bitrate=  11.3kbits/s speed=0.0212x    frame=  106 fps=4.2 q=61.0 size=       1kB time=00:00:00.56 bitrate=  10.5kbits/s speed=0.0224x    frame=  107 fps=4.1 q=61.0 size=       1kB time=00:00:00.58 bitrate=  10.1kbits/s speed=0.022x    frame=  108 fps=4.0 q=61.0 size=       1kB time=00:00:00.60 bitrate=   9.8kbits/s speed=0.0223x    frame=  111 fps=3.8 q=61.0 size=       1kB time=00:00:00.66 bitrate=   8.9kbits/s speed=0.0227x    frame=  113 fps=3.8 q=61.0 size=       1kB time=00:00:00.70 bitrate=   8.4kbits/s speed=0.0235x    frame=  115 fps=3.7 q=61.0 size=       1kB time=00:00:00.74 bitrate=   7.9kbits/s speed=0.024x    frame=  116 fps=3.7 q=61.0 size=       1kB time=00:00:00.76 bitrate=   7.7kbits/s speed=0.0242x    frame=  118 fps=3.6 q=61.0 size=       1kB time=00:00:00.80 bitrate=   7.4kbits/s speed=0.0245x    frame=  119 fps=3.5 q=61.0 size=       1kB time=00:00:00.82 bitrate=   7.2kbits/s speed=0.0245x    frame=  121 fps=3.5 q=61.0 size=       1kB time=00:00:00.86 bitrate=   6.8kbits/s speed=0.0249x    frame=  124 fps=3.4 q=61.0 size=       1kB time=00:00:00.92 bitrate=   6.4kbits/s speed=0.0252x    frame=  125 fps=3.3 q=61.0 size=       1kB time=00:00:00.94 bitrate=   6.3kbits/s speed=0.0251x    frame=  128 fps=3.3 q=61.0 size=       1kB time=00:00:01.00 bitrate=   5.9kbits/s speed=0.0257x    frame=  129 fps=3.3 q=61.0 size=       1kB time=00:00:01.02 bitrate=   5.8kbits/s speed=0.0258x    frame=  131 fps=3.2 q=60.0 size=       1kB time=00:00:01.06 bitrate=   5.5kbits/s speed=0.026x    frame=  133 fps=3.2 q=60.0 size=       1kB time=00:00:01.10 bitrate=   5.3kbits/s speed=0.0265x    frame=  134 fps=3.1 q=60.0 size=       1kB time=00:00:01.12 bitrate=   5.3kbits/s speed=0.0262x    frame=  137 fps=3.1 q=60.0 size=       1kB time=00:00:01.18 bitrate=   5.0kbits/s speed=0.027x    frame=  138 fps=3.1 q=60.0 size=       1kB time=00:00:01.20 bitrate=   4.9kbits/s speed=0.0267x    frame=  140 fps=3.1 q=60.0 size=       1kB time=00:00:01.24 bitrate=   4.7kbits/s speed=0.0272x    frame=  141 fps=3.0 q=60.0 size=       1kB time=00:00:01.26 bitrate=   4.7kbits/s speed=0.0269x    frame=  143 fps=3.0 q=60.0 size=       1kB time=00:00:01.30 bitrate=   4.5kbits/s speed=0.0272x    frame=  145 fps=3.0 q=60.0 size=       1kB time=00:00:01.34 bitrate=   4.4kbits/s speed=0.0273x    frame=  146 fps=2.9 q=60.0 size=       1kB time=00:00:01.36 bitrate=   4.3kbits/s speed=0.0273x    frame=  148 fps=2.9 q=60.0 size=       1kB time=00:00:01.40 bitrate=   4.2kbits/s speed=0.0274x    frame=  149 fps=2.9 q=60.0 size=       1kB time=00:00:01.42 bitrate=   4.1kbits/s speed=0.0274x    frame=  150 fps=2.8 q=60.0 size=       1kB time=00:00:01.44 bitrate=   4.1kbits/s speed=0.0272x    frame=  152 fps=2.8 q=60.0 size=       1kB time=00:00:01.48 bitrate=   4.0kbits/s speed=0.0276x    frame=  154 fps=2.8 q=60.0 size=       1kB time=00:00:01.52 bitrate=   3.9kbits/s speed=0.0277x    frame=  155 fps=2.8 q=60.0 size=       1kB time=00:00:01.54 bitrate=   3.8kbits/s speed=0.0276x    frame=  156 fps=2.8 q=60.0 size=       1kB time=00:00:01.56 bitrate=   3.8kbits/s speed=0.0275x    frame=  158 fps=2.7 q=60.0 size=       1kB time=00:00:01.60 bitrate=   3.7kbits/s speed=0.0278x    frame=  160 fps=2.7 q=60.0 size=       1kB time=00:00:01.64 bitrate=   3.6kbits/s speed=0.0281x    frame=  161 fps=2.7 q=60.0 size=       1kB time=00:00:01.66 bitrate=   3.5kbits/s speed=0.0278x    frame=  164 fps=2.7 q=60.0 size=       1kB time=00:00:01.72 bitrate=   3.4kbits/s speed=0.0282x    frame=  165 fps=2.7 q=60.0 size=       1kB time=00:00:01.74 bitrate=   3.4kbits/s speed=0.028x    frame=  168 fps=2.6 q=60.0 size=       1kB time=00:00:01.80 bitrate=   3.3kbits/s speed=0.0279x    frame=  170 fps=2.6 q=59.0 size=       1kB time=00:00:01.84 bitrate=   3.2kbits/s speed=0.0283x    frame=  172 fps=2.6 q=59.0 size=       1kB time=00:00:01.88 bitrate=   3.1kbits/s speed=0.028x    frame=  173 fps=2.6 q=59.0 size=       1kB time=00:00:01.90 bitrate=   3.1kbits/s speed=0.0281x    frame=  175 fps=2.6 q=59.0 size=       1kB time=00:00:01.94 bitrate=   3.0kbits/s speed=0.0283x    frame=  178 fps=2.5 q=59.0 size=       1kB time=00:00:02.00 bitrate=   2.9kbits/s speed=0.0284x    frame=  179 fps=2.5 q=59.0 size=       1kB time=00:00:02.02 bitrate=   2.9kbits/s speed=0.0282x    frame=  181 fps=2.5 q=59.0 size=       1kB time=00:00:02.06 bitrate=   2.9kbits/s speed=0.0285x    frame=  183 fps=2.5 q=59.0 size=       1kB time=00:00:02.10 bitrate=   2.8kbits/s speed=0.0286x    frame=  185 fps=2.5 q=59.0 size=       1kB time=00:00:02.14 bitrate=   2.8kbits/s speed=0.0286x    frame=  186 fps=2.4 q=59.0 size=       1kB time=00:00:02.16 bitrate=   2.7kbits/s speed=0.0285x    frame=  187 fps=2.4 q=59.0 size=       1kB time=00:00:02.18 bitrate=   2.7kbits/s speed=0.0284x    frame=  189 fps=2.4 q=59.0 size=       1kB time=00:00:02.22 bitrate=   2.7kbits/s speed=0.0287x    frame=  191 fps=2.4 q=59.0 size=       1kB time=00:00:02.26 bitrate=   2.6kbits/s speed=0.0287x    frame=  192 fps=2.4 q=59.0 size=       1kB time=00:00:02.28 bitrate=   2.6kbits/s speed=0.0284x    frame=  193 fps=2.4 q=59.0 size=       1kB time=00:00:02.30 bitrate=   2.6kbits/s speed=0.0285x    frame=  196 fps=2.4 q=59.0 size=       1kB time=00:00:02.36 bitrate=   2.5kbits/s speed=0.0289x    frame=  197 fps=2.4 q=59.0 size=       1kB time=00:00:02.38 bitrate=   2.5kbits/s speed=0.0287x    frame=  199 fps=2.3 q=59.0 size=       1kB time=00:00:02.42 bitrate=   2.4kbits/s speed=0.0285x    frame=  203 fps=2.4 q=59.0 size=       1kB time=00:00:02.50 bitrate=   2.4kbits/s speed=0.0291x    frame=  205 fps=2.3 q=59.0 size=       1kB time=00:00:02.54 bitrate=   2.3kbits/s speed=0.0287x    frame=  206 fps=2.3 q=59.0 size=       1kB time=00:00:02.56 bitrate=   2.3kbits/s speed=0.0286x    frame=  208 fps=2.3 q=59.0 size=       1kB time=00:00:02.60 bitrate=   2.3kbits/s speed=0.0289x    frame=  211 fps=2.3 q=59.0 size=       1kB time=00:00:02.66 bitrate=   2.2kbits/s speed=0.0288x    frame=  214 fps=2.3 q=59.0 size=       1kB time=00:00:02.72 bitrate=   2.2kbits/s speed=0.0289x    frame=  215 fps=2.3 q=59.0 size=       1kB time=00:00:02.74 bitrate=   2.1kbits/s speed=0.0288x    frame=  217 fps=2.3 q=59.0 size=       1kB time=00:00:02.78 bitrate=   2.1kbits/s speed=0.029x    frame=  219 fps=2.3 q=59.0 size=       1kB time=00:00:02.82 bitrate=   2.1kbits/s speed=0.0291x    frame=  220 fps=2.2 q=59.0 size=       1kB time=00:00:02.84 bitrate=   2.1kbits/s speed=0.0286x    frame=  224 fps=2.2 q=59.0 size=       1kB time=00:00:02.92 bitrate=   2.0kbits/s speed=0.029x    frame=  225 fps=2.2 q=59.0 size=       1kB time=00:00:02.94 bitrate=   2.0kbits/s speed=0.0291x    frame=  226 fps=2.2 q=59.0 size=       1kB time=00:00:02.96 bitrate=   2.0kbits/s speed=0.0289x    frame=  227 fps=2.2 q=59.0 size=       1kB time=00:00:02.98 bitrate=   2.0kbits/s speed=0.0289x    frame=  228 fps=2.2 q=58.0 size=       1kB time=00:00:03.00 bitrate=   2.0kbits/s speed=0.0289x    frame=  230 fps=2.2 q=59.0 size=       1kB time=00:00:03.04 bitrate=   1.9kbits/s speed=0.029x    frame=  231 fps=2.2 q=58.0 size=       1kB time=00:00:03.06 bitrate=   1.9kbits/s speed=0.029x    frame=  233 fps=2.2 q=58.0 size=       1kB time=00:00:03.10 bitrate=   1.9kbits/s speed=0.029x    frame=  234 fps=2.2 q=58.0 size=       1kB time=00:00:03.12 bitrate=   1.9kbits/s speed=0.0289x    frame=  236 fps=2.2 q=58.0 size=       1kB time=00:00:03.16 bitrate=   1.9kbits/s speed=0.0289x    frame=  238 fps=2.2 q=58.0 size=       1kB time=00:00:03.20 bitrate=   1.8kbits/s speed=0.029x    frame=  239 fps=2.1 q=58.0 size=       1kB time=00:00:03.22 bitrate=   1.8kbits/s speed=0.0289x    frame=  240 fps=2.1 q=58.0 size=       1kB time=00:00:03.24 bitrate=   1.8kbits/s speed=0.0288x    frame=  243 fps=2.2 q=58.0 size=       1kB time=00:00:03.30 bitrate=   1.8kbits/s speed=0.0292x    frame=  244 fps=2.1 q=58.0 size=       1kB time=00:00:03.32 bitrate=   1.8kbits/s speed=0.0291x    frame=  245 fps=2.1 q=58.0 size=       1kB time=00:00:03.34 bitrate=   1.8kbits/s speed=0.0289x    frame=  246 fps=2.1 q=58.0 size=       1kB time=00:00:03.36 bitrate=   1.8kbits/s speed=0.0287x    frame=  247 fps=2.1 q=58.0 size=       1kB time=00:00:03.38 bitrate=   1.7kbits/s speed=0.0287x    frame=  250 fps=2.1 q=58.0 size=       1kB time=00:00:03.44 bitrate=   1.7kbits/s speed=0.0288x    frame=  251 fps=2.1 q=58.0 size=       1kB time=00:00:03.46 bitrate=   1.7kbits/s speed=0.0286x    frame=  252 fps=2.1 q=58.0 size=       1kB time=00:00:03.48 bitrate=   1.7kbits/s speed=0.0286x    frame=  253 fps=2.1 q=58.0 size=       1kB time=00:00:03.50 bitrate=   1.7kbits/s speed=0.0286x    frame=  254 fps=2.1 q=58.0 size=       1kB time=00:00:03.52 bitrate=   1.7kbits/s speed=0.0284x    frame=  256 fps=2.1 q=58.0 size=       1kB time=00:00:03.56 bitrate=   1.7kbits/s speed=0.0286x    frame=  257 fps=2.0 q=58.0 size=       1kB time=00:00:03.58 bitrate=   1.6kbits/s speed=0.0284x    frame=  259 fps=2.0 q=58.0 size=       1kB time=00:00:03.62 bitrate=   1.6kbits/s speed=0.0286x    frame=  260 fps=2.0 q=58.0 size=       1kB time=00:00:03.64 bitrate=   1.6kbits/s speed=0.0283x    frame=  262 fps=2.0 q=58.0 size=       1kB time=00:00:03.68 bitrate=   1.6kbits/s speed=0.0284x    frame=  264 fps=2.0 q=58.0 size=       1kB time=00:00:03.72 bitrate=   1.6kbits/s speed=0.0286x    frame=  265 fps=2.0 q=58.0 size=       1kB time=00:00:03.74 bitrate=   1.6kbits/s speed=0.0286x    frame=  266 fps=2.0 q=58.0 size=       1kB time=00:00:03.76 bitrate=   1.6kbits/s speed=0.0285x    frame=  267 fps=2.0 q=58.0 size=       1kB time=00:00:03.78 bitrate=   1.6kbits/s speed=0.0284x    frame=  268 fps=2.0 q=58.0 size=       1kB time=00:00:03.80 bitrate=   1.5kbits/s speed=0.0284x    frame=  269 fps=2.0 q=58.0 size=       1kB time=00:00:03.82 bitrate=   1.5kbits/s speed=0.0284x    frame=  272 fps=2.0 q=58.0 size=       1kB time=00:00:03.88 bitrate=   1.5kbits/s speed=0.0286x    frame=  273 fps=2.0 q=58.0 size=       1kB time=00:00:03.90 bitrate=   1.5kbits/s speed=0.0284x    frame=  274 fps=2.0 q=58.0 size=       1kB time=00:00:03.92 bitrate=   1.5kbits/s speed=0.0284x    frame=  276 fps=2.0 q=58.0 size=       1kB time=00:00:03.96 bitrate=   1.5kbits/s speed=0.0286x    frame=  277 fps=2.0 q=58.0 size=       1kB time=00:00:03.98 bitrate=   1.5kbits/s speed=0.0284x    frame=  279 fps=2.0 q=58.0 size=       1kB time=00:00:04.02 bitrate=   1.5kbits/s speed=0.0286x    frame=  280 fps=2.0 q=58.0 size=       1kB time=00:00:04.04 bitrate=   1.5kbits/s speed=0.0284x    frame=  282 fps=2.0 q=58.0 size=       1kB time=00:00:04.08 bitrate=   1.4kbits/s speed=0.0285x    frame=  283 fps=2.0 q=58.0 size=       1kB time=00:00:04.10 bitrate=   1.4kbits/s speed=0.0284x    frame=  287 fps=2.0 q=58.0 size=       1kB time=00:00:04.18 bitrate=   1.4kbits/s speed=0.0285x    frame=  289 fps=2.0 q=58.0 size=       1kB time=00:00:04.22 bitrate=   1.4kbits/s speed=0.0285x    frame=  290 fps=1.9 q=58.0 size=       1kB time=00:00:04.24 bitrate=   1.4kbits/s speed=0.0285x    frame=  292 fps=1.9 q=58.0 size=       1kB time=00:00:04.28 bitrate=   1.4kbits/s speed=0.0285x    frame=  293 fps=1.9 q=58.0 size=       1kB time=00:00:04.30 bitrate=   1.4kbits/s speed=0.0285x    frame=  294 fps=1.9 q=58.0 size=       1kB time=00:00:04.32 bitrate=   1.4kbits/s speed=0.0286x    frame=  295 fps=1.9 q=58.0 size=       1kB time=00:00:04.34 bitrate=   1.4kbits/s speed=0.0285x    frame=  297 fps=1.9 q=58.0 size=       1kB time=00:00:04.38 bitrate=   1.3kbits/s speed=0.0285x    frame=  298 fps=1.9 q=58.0 size=       1kB time=00:00:04.40 bitrate=   1.3kbits/s speed=0.0285x    frame=  300 fps=1.9 q=58.0 size=       1kB time=00:00:04.44 bitrate=   1.3kbits/s speed=0.0286x    frame=  302 fps=1.9 q=58.0 size=       1kB time=00:00:04.48 bitrate=   1.3kbits/s speed=0.0286x    frame=  303 fps=1.9 q=58.0 size=       1kB time=00:00:04.50 bitrate=   1.3kbits/s speed=0.0285x    frame=  304 fps=1.9 q=58.0 size=       1kB time=00:00:04.52 bitrate=   1.3kbits/s speed=0.0285x    frame=  305 fps=1.9 q=58.0 size=       1kB time=00:00:04.54 bitrate=   1.3kbits/s speed=0.0285x    frame=  307 fps=1.9 q=58.0 size=       1kB time=00:00:04.58 bitrate=   1.3kbits/s speed=0.0286x    frame=  309 fps=1.9 q=58.0 size=       1kB time=00:00:04.62 bitrate=   1.3kbits/s speed=0.0287x    frame=  310 fps=1.9 q=58.0 size=       1kB time=00:00:04.64 bitrate=   1.3kbits/s speed=0.0285x    frame=  312 fps=1.9 q=58.0 size=       1kB time=00:00:04.68 bitrate=   1.3kbits/s speed=0.0285x    frame=  314 fps=1.9 q=58.0 size=       1kB time=00:00:04.72 bitrate=   1.2kbits/s speed=0.0285x    frame=  316 fps=1.9 q=58.0 size=       1kB time=00:00:04.76 bitrate=   1.2kbits/s speed=0.0286x    frame=  318 fps=1.9 q=58.0 size=       1kB time=00:00:04.80 bitrate=   1.2kbits/s speed=0.0288x    frame=  319 fps=1.9 q=58.0 size=       1kB time=00:00:04.82 bitrate=   1.2kbits/s speed=0.0284x    frame=  321 fps=1.9 q=55.0 size=       1kB time=00:00:04.86 bitrate=   1.2kbits/s speed=0.0286x    frame=  324 fps=1.9 q=58.0 size=       1kB time=00:00:04.92 bitrate=   1.2kbits/s speed=0.0288x    frame=  325 fps=1.9 q=58.0 size=       1kB time=00:00:04.94 bitrate=   1.2kbits/s speed=0.0287x    frame=  328 fps=1.9 q=58.0 size=    1546kB time=00:00:05.00 bitrate=2532.6kbits/s speed=0.0289x    frame=  333 fps=1.9 q=58.0 size=    1546kB time=00:00:05.10 bitrate=2483.0kbits/s speed=0.0293x    frame=  336 fps=1.9 q=58.0 size=    1546kB time=00:00:05.16 bitrate=2454.1kbits/s speed=0.0295x    frame=  339 fps=1.9 q=58.0 size=    1546kB time=00:00:05.22 bitrate=2425.9kbits/s speed=0.0297x    frame=  340 fps=1.9 q=58.0 size=    1546kB time=00:00:05.24 bitrate=2416.6kbits/s speed=0.0297x    frame=  341 fps=1.9 q=58.0 size=    1546kB time=00:00:05.26 bitrate=2407.4kbits/s speed=0.0297x    frame=  343 fps=1.9 q=58.0 size=    1546kB time=00:00:05.30 bitrate=2389.3kbits/s speed=0.0298x    frame=  345 fps=1.9 q=58.0 size=    1546kB time=00:00:05.34 bitrate=2371.4kbits/s speed=0.0298x    frame=  346 fps=1.9 q=58.0 size=    1546kB time=00:00:05.36 bitrate=2362.5kbits/s speed=0.0299x    frame=  347 fps=1.9 q=59.0 size=    1546kB time=00:00:05.38 bitrate=2353.7kbits/s speed=0.0299x    frame=  349 fps=1.9 q=58.0 size=    1546kB time=00:00:05.42 bitrate=2336.4kbits/s speed=0.0299x    frame=  350 fps=1.9 q=59.0 size=    1546kB time=00:00:05.44 bitrate=2327.8kbits/s speed=0.0299x    frame=  351 fps=1.9 q=59.0 size=    1546kB time=00:00:05.46 bitrate=2319.3kbits/s speed=0.0299x    frame=  352 fps=1.9 q=59.0 size=    1546kB time=00:00:05.48 bitrate=2310.8kbits/s speed=0.0299x    frame=  353 fps=1.9 q=59.0 size=    1546kB time=00:00:05.50 bitrate=2302.4kbits/s speed=0.0298x    frame=  354 fps=1.9 q=59.0 size=    1546kB time=00:00:05.52 bitrate=2294.1kbits/s speed=0.0298x    frame=  356 fps=1.9 q=59.0 size=    1546kB time=00:00:05.56 bitrate=2277.6kbits/s speed=0.0299x    frame=  357 fps=1.9 q=59.0 size=    1546kB time=00:00:05.58 bitrate=2269.4kbits/s speed=0.0299x    frame=  358 fps=1.9 q=59.0 size=    1546kB time=00:00:05.60 bitrate=2261.3kbits/s speed=0.0298x    frame=  360 fps=1.9 q=59.0 size=    1546kB time=00:00:05.64 bitrate=2245.3kbits/s speed=0.0299x    frame=  361 fps=1.9 q=59.0 size=    1546kB time=00:00:05.66 bitrate=2237.3kbits/s speed=0.0298x    frame=  362 fps=1.9 q=59.0 size=    1546kB time=00:00:05.68 bitrate=2229.5kbits/s speed=0.0298x    frame=  364 fps=1.9 q=59.0 size=    1546kB time=00:00:05.72 bitrate=2213.9kbits/s speed=0.0299x    frame=  365 fps=1.9 q=59.0 size=    1546kB time=00:00:05.74 bitrate=2206.2kbits/s speed=0.0298x    frame=  366 fps=1.9 q=59.0 size=    1546kB time=00:00:05.76 bitrate=2198.5kbits/s speed=0.0298x    frame=  368 fps=1.9 q=59.0 size=    1546kB time=00:00:05.80 bitrate=2183.3kbits/s speed=0.0298x    frame=  369 fps=1.9 q=59.0 size=    1546kB time=00:00:05.82 bitrate=2175.8kbits/s speed=0.0298x    frame=  370 fps=1.9 q=59.0 size=    1546kB time=00:00:05.84 bitrate=2168.4kbits/s speed=0.0298x    frame=  373 fps=1.9 q=59.0 size=    1546kB time=00:00:05.90 bitrate=2146.3kbits/s speed=0.0297x    frame=  375 fps=1.9 q=59.0 size=    1546kB time=00:00:05.94 bitrate=2131.9kbits/s speed=0.0298x    frame=  377 fps=1.9 q=59.0 size=    1546kB time=00:00:05.98 bitrate=2117.6kbits/s speed=0.0299x    frame=  378 fps=1.9 q=59.0 size=    1546kB time=00:00:06.00 bitrate=2110.6kbits/s speed=0.0298x    frame=  379 fps=1.9 q=59.0 size=    1546kB time=00:00:06.02 bitrate=2103.6kbits/s speed=0.0298x    frame=  380 fps=1.9 q=59.0 size=    1546kB time=00:00:06.04 bitrate=2096.6kbits/s speed=0.0297x    frame=  382 fps=1.9 q=59.0 size=    1546kB time=00:00:06.08 bitrate=2082.8kbits/s speed=0.0298x    frame=  384 fps=1.9 q=59.0 size=    1546kB time=00:00:06.12 bitrate=2069.2kbits/s speed=0.0298x    frame=  386 fps=1.9 q=59.0 size=    1546kB time=00:00:06.16 bitrate=2055.8kbits/s speed=0.0297x    frame=  387 fps=1.9 q=59.0 size=    1546kB time=00:00:06.18 bitrate=2049.1kbits/s speed=0.0297x    frame=  388 fps=1.9 q=59.0 size=    1546kB time=00:00:06.20 bitrate=2042.5kbits/s speed=0.0297x    frame=  390 fps=1.9 q=59.0 size=    1546kB time=00:00:06.24 bitrate=2029.4kbits/s speed=0.0297x    frame=  391 fps=1.9 q=59.0 size=    1546kB time=00:00:06.26 bitrate=2022.9kbits/s speed=0.0297x    frame=  392 fps=1.9 q=59.0 size=    1546kB time=00:00:06.28 bitrate=2016.5kbits/s speed=0.0297x    frame=  394 fps=1.8 q=59.0 size=    1546kB time=00:00:06.32 bitrate=2003.7kbits/s speed=0.0297x    frame=  395 fps=1.8 q=59.0 size=    1546kB time=00:00:06.34 bitrate=1997.4kbits/s speed=0.0296x    frame=  398 fps=1.8 q=59.0 size=    1546kB time=00:00:06.40 bitrate=1978.7kbits/s speed=0.0296x    frame=  399 fps=1.8 q=59.0 size=    1546kB time=00:00:06.42 bitrate=1972.5kbits/s speed=0.0296x    frame=  401 fps=1.8 q=59.0 size=    1546kB time=00:00:06.46 bitrate=1960.3kbits/s speed=0.0295x    frame=  402 fps=1.8 q=59.0 size=    1546kB time=00:00:06.48 bitrate=1954.3kbits/s speed=0.0295x    frame=  403 fps=1.8 q=59.0 size=    1546kB time=00:00:06.50 bitrate=1948.2kbits/s speed=0.0295x    frame=  404 fps=1.8 q=59.0 size=    1546kB time=00:00:06.52 bitrate=1942.3kbits/s speed=0.0295x    frame=  407 fps=1.8 q=59.0 size=    1546kB time=00:00:06.58 bitrate=1924.6kbits/s speed=0.0294x    frame=  408 fps=1.8 q=59.0 size=    1546kB time=00:00:06.60 bitrate=1918.7kbits/s speed=0.0294x    frame=  410 fps=1.8 q=59.0 size=    1546kB time=00:00:06.64 bitrate=1907.2kbits/s speed=0.0295x    frame=  411 fps=1.8 q=59.0 size=    1546kB time=00:00:06.66 bitrate=1901.4kbits/s speed=0.0295x    frame=  412 fps=1.8 q=59.0 size=    1546kB time=00:00:06.68 bitrate=1895.8kbits/s speed=0.0295x    frame=  414 fps=1.8 q=59.0 size=    1546kB time=00:00:06.72 bitrate=1884.5kbits/s speed=0.0295x    frame=  415 fps=1.8 q=59.0 size=    1546kB time=00:00:06.74 bitrate=1878.9kbits/s speed=0.0294x    frame=  416 fps=1.8 q=59.0 size=    1546kB time=00:00:06.76 bitrate=1873.3kbits/s speed=0.0294x    frame=  418 fps=1.8 q=59.0 size=    1546kB time=00:00:06.80 bitrate=1862.3kbits/s speed=0.0295x    frame=  420 fps=1.8 q=59.0 size=    1546kB time=00:00:06.84 bitrate=1851.4kbits/s speed=0.0295x    frame=  421 fps=1.8 q=59.0 size=    1546kB time=00:00:06.86 bitrate=1846.0kbits/s speed=0.0294x    frame=  423 fps=1.8 q=59.0 size=    1546kB time=00:00:06.90 bitrate=1835.3kbits/s speed=0.0295x    frame=  424 fps=1.8 q=59.0 size=    1546kB time=00:00:06.92 bitrate=1830.0kbits/s speed=0.0294x    frame=  425 fps=1.8 q=59.0 size=    1546kB time=00:00:06.94 bitrate=1824.7kbits/s speed=0.0293x    frame=  428 fps=1.8 q=59.0 size=    1546kB time=00:00:07.00 bitrate=1809.1kbits/s speed=0.0294x    frame=  430 fps=1.8 q=59.0 size=    1546kB time=00:00:07.04 bitrate=1798.8kbits/s speed=0.0295x    frame=  431 fps=1.8 q=59.0 size=    1546kB time=00:00:07.06 bitrate=1793.7kbits/s speed=0.0293x    frame=  434 fps=1.8 q=59.0 size=    1546kB time=00:00:07.12 bitrate=1778.6kbits/s speed=0.0294x    frame=  435 fps=1.8 q=59.0 size=    1546kB time=00:00:07.14 bitrate=1773.6kbits/s speed=0.0294x    frame=  437 fps=1.8 q=59.0 size=    1546kB time=00:00:07.18 bitrate=1763.8kbits/s speed=0.0294x    frame=  438 fps=1.8 q=59.0 size=    1546kB time=00:00:07.20 bitrate=1758.9kbits/s speed=0.0293x    frame=  439 fps=1.8 q=59.0 size=    1546kB time=00:00:07.22 bitrate=1754.0kbits/s speed=0.0293x    frame=  441 fps=1.8 q=59.0 size=    1546kB time=00:00:07.26 bitrate=1744.3kbits/s speed=0.0294x    frame=  442 fps=1.8 q=59.0 size=    1546kB time=00:00:07.28 bitrate=1739.5kbits/s speed=0.0293x    frame=  444 fps=1.8 q=59.0 size=    1546kB time=00:00:07.32 bitrate=1730.0kbits/s speed=0.0294x    frame=  445 fps=1.8 q=59.0 size=    1546kB time=00:00:07.34 bitrate=1725.3kbits/s speed=0.0293x    frame=  446 fps=1.8 q=59.0 size=    1546kB time=00:00:07.36 bitrate=1720.6kbits/s speed=0.0293x    frame=  448 fps=1.8 q=59.0 size=    1546kB time=00:00:07.40 bitrate=1711.3kbits/s speed=0.0293x    frame=  449 fps=1.8 q=59.0 size=    1546kB time=00:00:07.42 bitrate=1706.7kbits/s speed=0.0293x    frame=  450 fps=1.8 q=59.0 size=    1546kB time=00:00:07.44 bitrate=1702.1kbits/s speed=0.0292x    frame=  451 fps=1.8 q=59.0 size=    1546kB time=00:00:07.46 bitrate=1697.6kbits/s speed=0.0293x    frame=  453 fps=1.8 q=59.0 size=    1546kB time=00:00:07.50 bitrate=1688.5kbits/s speed=0.0293x    frame=  454 fps=1.8 q=59.0 size=    1546kB time=00:00:07.52 bitrate=1684.0kbits/s speed=0.0293x    frame=  455 fps=1.8 q=59.0 size=    1546kB time=00:00:07.54 bitrate=1679.6kbits/s speed=0.0292x    frame=  457 fps=1.8 q=59.0 size=    1546kB time=00:00:07.58 bitrate=1670.7kbits/s speed=0.0293x    frame=  458 fps=1.8 q=59.0 size=    1546kB time=00:00:07.60 bitrate=1666.3kbits/s speed=0.0292x    frame=  459 fps=1.8 q=59.0 size=    1546kB time=00:00:07.62 bitrate=1661.9kbits/s speed=0.0292x    frame=  461 fps=1.8 q=59.0 size=    1546kB time=00:00:07.66 bitrate=1653.2kbits/s speed=0.0293x    frame=  462 fps=1.8 q=59.0 size=    1546kB time=00:00:07.68 bitrate=1648.9kbits/s speed=0.0292x    frame=  464 fps=1.8 q=59.0 size=    1546kB time=00:00:07.72 bitrate=1640.4kbits/s speed=0.0292x    frame=  466 fps=1.8 q=59.0 size=    1546kB time=00:00:07.76 bitrate=1631.9kbits/s speed=0.0292x    frame=  468 fps=1.7 q=59.0 size=    1546kB time=00:00:07.80 bitrate=1623.6kbits/s speed=0.0291x    frame=  469 fps=1.7 q=59.0 size=    1546kB time=00:00:07.82 bitrate=1619.4kbits/s speed=0.0291x    frame=  471 fps=1.7 q=59.0 size=    1546kB time=00:00:07.86 bitrate=1611.2kbits/s speed=0.0292x    frame=  472 fps=1.7 q=59.0 size=    1546kB time=00:00:07.88 bitrate=1607.1kbits/s speed=0.0292x    frame=  473 fps=1.7 q=59.0 size=    1546kB time=00:00:07.90 bitrate=1603.0kbits/s speed=0.0291x    frame=  474 fps=1.7 q=59.0 size=    1546kB time=00:00:07.92 bitrate=1599.0kbits/s speed=0.029x    frame=  476 fps=1.7 q=59.0 size=    1546kB time=00:00:07.96 bitrate=1590.9kbits/s speed=0.029x    frame=  479 fps=1.7 q=59.0 size=    1546kB time=00:00:08.02 bitrate=1579.0kbits/s speed=0.029x    frame=  480 fps=1.7 q=59.0 size=    1546kB time=00:00:08.04 bitrate=1575.1kbits/s speed=0.029x    frame=  482 fps=1.7 q=59.0 size=    1546kB time=00:00:08.08 bitrate=1567.3kbits/s speed=0.029x    frame=  483 fps=1.7 q=59.0 size=    1546kB time=00:00:08.10 bitrate=1563.5kbits/s speed=0.029x    frame=  485 fps=1.7 q=59.0 size=    1546kB time=00:00:08.14 bitrate=1555.8kbits/s speed=0.029x    frame=  486 fps=1.7 q=59.0 size=    1546kB time=00:00:08.16 bitrate=1552.0kbits/s speed=0.029x    frame=  487 fps=1.7 q=59.0 size=    1546kB time=00:00:08.18 bitrate=1548.2kbits/s speed=0.029x    frame=  488 fps=1.7 q=59.0 size=    1546kB time=00:00:08.20 bitrate=1544.4kbits/s speed=0.029x    frame=  489 fps=1.7 q=59.0 size=    1546kB time=00:00:08.22 bitrate=1540.6kbits/s speed=0.029x    frame=  490 fps=1.7 q=59.0 size=    1546kB time=00:00:08.24 bitrate=1536.9kbits/s speed=0.0289x    frame=  491 fps=1.7 q=59.0 size=    1546kB time=00:00:08.26 bitrate=1533.2kbits/s speed=0.0289x    frame=  492 fps=1.7 q=59.0 size=    1546kB time=00:00:08.28 bitrate=1529.5kbits/s speed=0.0289x    frame=  494 fps=1.7 q=59.0 size=    1546kB time=00:00:08.32 bitrate=1522.1kbits/s speed=0.029x    frame=  495 fps=1.7 q=59.0 size=    1546kB time=00:00:08.34 bitrate=1518.5kbits/s speed=0.0288x    frame=  498 fps=1.7 q=59.0 size=    1546kB time=00:00:08.40 bitrate=1507.6kbits/s speed=0.0289x    frame=  499 fps=1.7 q=59.0 size=    1546kB time=00:00:08.42 bitrate=1504.0kbits/s speed=0.0288x    frame=  500 fps=1.7 q=59.0 size=    1546kB time=00:00:08.44 bitrate=1500.5kbits/s speed=0.0288x    frame=  500 fps=1.4 q=-1.0 Lsize=    3199kB time=00:00:09.94 bitrate=2636.5kbits/s speed=0.0286x    
video:3195kB audio:0kB subtitle:0kB other streams:0kB global headers:0kB muxing overhead: 0.134852%
bench: utime=1321.452s
bench: maxrss=3303864kB
[libx264 @ 0x401c1c0] frame I:2     Avg QP:46.99  size: 88714
[libx264 @ 0x401c1c0] frame P:114   Avg QP:50.96  size: 17260
[libx264 @ 0x401c1c0] frame B:384   Avg QP:50.94  size:  2932
[libx264 @ 0x401c1c0] consecutive B-frames:  0.4%  0.0%  1.2% 60.0% 30.0%  8.4%  0.0%  0.0%  0.0%
[libx264 @ 0x401c1c0] mb I  I16..4: 35.3% 63.3%  1.4%
[libx264 @ 0x401c1c0] mb P  I16..4: 16.1%  8.9%  0.0%  P16..4: 14.1%  0.1%  1.1%  0.0%  0.0%    skip:59.7%
[libx264 @ 0x401c1c0] mb B  I16..4:  0.0%  0.0%  0.0%  B16..8:  9.6%  0.0%  0.0%  direct: 0.0%  skip:90.3%  L0:36.7% L1:63.3% BI: 0.0%
[libx264 @ 0x401c1c0] final ratefactor: 51.05
[libx264 @ 0x401c1c0] 8x8 transform intra:37.3% inter:96.8%
[libx264 @ 0x401c1c0] direct mvs  spatial:99.2% temporal:0.8%
[libx264 @ 0x401c1c0] coded y,uvDC,uvAC intra: 3.0% 31.1% 0.5% inter: 0.0% 0.9% 0.0%
[libx264 @ 0x401c1c0] i16 v,h,dc,p: 74% 18%  3%  5%
[libx264 @ 0x401c1c0] i8 v,h,dc,ddl,ddr,vr,hd,vl,hu:  4%  2% 85%  2%  2%  1%  2%  1%  1%
[libx264 @ 0x401c1c0] i4 v,h,dc,ddl,ddr,vr,hd,vl,hu:  7%  4%  3% 14% 14% 15% 15% 11% 17%
[libx264 @ 0x401c1c0] i8c dc,h,v,p: 89%  5%  5%  1%
[libx264 @ 0x401c1c0] Weighted P-Frames: Y:1.8% UV:0.9%
[libx264 @ 0x401c1c0] ref P L0: 46.8%  0.5% 14.0%  6.9%  4.9%  5.8%  4.7%  2.5%  2.0%  2.2%  1.7%  1.9%  1.5%  1.8%  1.7%  1.1%
[libx264 @ 0x401c1c0] ref B L0: 82.4%  3.8%  3.2%  1.4%  1.6%  1.2%  1.3%  0.6%  0.8%  0.7%  0.7%  0.6%  0.7%  0.6%  0.5%
[libx264 @ 0x401c1c0] ref B L1: 98.8%  1.2%
[libx264 @ 0x401c1c0] kb/s:2616.83
